{
    "asset" : {
        "generator" : "Khronos glTF Blender I/O v3.2.43",
        "version" : "2.0"
    },
    "extensionsUsed" : [
        "KHR_materials_unlit"
    ],
    "scene" : 0,
    "scenes" : [
        {
            "name" : "Scene",
            "nodes" : [
                0,
                3,
                4,
                5,
                6,
                7,
                8,
                11,
                14,
                17,
                18,
                19,
                20,
                21,
                22,
                23,
                24
            ]
        }
    ],
    "nodes" : [
        {
            "name" : "Spawn Point",
            "rotation" : [
                0,
                -1,
                0,
                2.220446049250313e-16
            ],
            "translation" : [
                1.9303135871887207,
                0,
                2.0985515117645264
            ]
        },
        {
            "mesh" : 0,
            "name" : "navMesh"
        },
        {
            "mesh" : 1,
            "name" : "trimesh"
        },
        {
            "children" : [
                1,
                2
            ],
            "name" : "Floor Plan",
            "translation" : [
                0,
                0.004999999888241291,
                0
            ]
        },
        {
            "name" : "Spawn Point.001",
            "translation" : [
                3,
                0,
                -3.6577999591827393
            ]
        },
        {
            "name" : "Spawn Point.002",
            "rotation" : [
                0,
                0.9238795638084412,
                0,
                0.3826833963394165
            ],
            "translation" : [
                -2.111581325531006,
                0,
                4.611581325531006
            ]
        },
        {
            "name" : "Spawn Point 1",
            "rotation" : [
                0,
                0.7071068286895752,
                0,
                0.7071067094802856
            ],
            "translation" : [
                -3.6577999591827393,
                0,
                1.5
            ]
        },
        {
            "name" : "Spawn Point 2",
            "rotation" : [
                0,
                -1,
                0,
                1.4163846715969995e-16
            ],
            "translation" : [
                4,
                0,
                4.15779972076416
            ]
        },
        {
            "name" : "Spawn Point 3",
            "rotation" : [
                0,
                -0.7071068286895752,
                0,
                0.7071067094802856
            ],
            "translation" : [
                6.15779972076416,
                0,
                -1
            ]
        },
        {
            "mesh" : 2,
            "name" : "teleport",
            "scale" : [
                0.10000000149011612,
                0.5,
                0.10000000149011612
            ],
            "translation" : [
                -3.2076478004455566,
                0.49220409989356995,
                0.061171531677246094
            ]
        },
        {
            "children" : [
                9
            ],
            "name" : "Scene"
        },
        {
            "children" : [
                10
            ],
            "name" : "floorplan.glb"
        },
        {
            "mesh" : 3,
            "name" : "tree"
        },
        {
            "children" : [
                12
            ],
            "name" : "Scene.001"
        },
        {
            "children" : [
                13
            ],
            "name" : "tree.glb"
        },
        {
            "mesh" : 4,
            "name" : "hall"
        },
        {
            "children" : [
                15
            ],
            "name" : "Scene.002"
        },
        {
            "children" : [
                16
            ],
            "name" : "hall.glb"
        },
        {
            "name" : "Media Frame",
            "translation" : [
                2.799999952316284,
                1.399999976158142,
                0.75
            ]
        },
        {
            "name" : "Media Frame.001",
            "rotation" : [
                0,
                1,
                0,
                1.4163846715969995e-16
            ],
            "translation" : [
                0.6000000238418579,
                2.200000047683716,
                6.699999809265137
            ]
        },
        {
            "name" : "Media Frame 1",
            "rotation" : [
                0,
                -0.7071068286895752,
                0,
                0.7071067094802856
            ],
            "translation" : [
                8.300000190734863,
                2.200000047683716,
                -1.7999999523162842
            ]
        },
        {
            "name" : "Media Frame 2",
            "translation" : [
                4.199999809265137,
                2.200000047683716,
                -7.199999809265137
            ]
        },
        {
            "name" : "Directional Light",
            "rotation" : [
                0.8449607491493225,
                -0.03289061784744263,
                0.05231327563524246,
                0.5312466025352478
            ],
            "translation" : [
                5,
                3,
                0
            ]
        },
        {
            "name" : "Skybox"
        },
        {
            "name" : "scene-preview-camera",
            "rotation" : [
                0.07076205313205719,
                0.8691960573196411,
                -0.1303962618112564,
                0.47168606519699097
            ],
            "translation" : [
                4.798501968383789,
                1.2424821853637695,
                -2.671994209289551
            ]
        }
    ],
    "materials" : [
        {
            "alphaMode" : "BLEND",
            "extensions" : {
                "KHR_materials_unlit" : {}
            },
            "name" : "Material_0",
            "pbrMetallicRoughness" : {
                "baseColorFactor" : [
                    0,
                    0,
                    1,
                    0
                ],
                "metallicFactor" : 0,
                "roughnessFactor" : 0.9
            }
        },
        {
            "alphaMode" : "BLEND",
            "extensions" : {
                "KHR_materials_unlit" : {}
            },
            "name" : "Material_1",
            "pbrMetallicRoughness" : {
                "baseColorFactor" : [
                    1,
                    0,
                    0,
                    0
                ],
                "metallicFactor" : 0,
                "roughnessFactor" : 0.9
            }
        },
        {
            "name" : "Material_2",
            "pbrMetallicRoughness" : {}
        },
        {
            "doubleSided" : true,
            "extensions" : {
                "KHR_materials_unlit" : {}
            },
            "name" : "Material.004",
            "pbrMetallicRoughness" : {
                "baseColorTexture" : {
                    "index" : 0,
                    "texCoord" : 0
                },
                "metallicFactor" : 0,
                "roughnessFactor" : 0.9
            }
        },
        {
            "doubleSided" : true,
            "extensions" : {
                "KHR_materials_unlit" : {}
            },
            "name" : "Material.003",
            "pbrMetallicRoughness" : {
                "baseColorTexture" : {
                    "index" : 1,
                    "texCoord" : 0
                },
                "metallicFactor" : 0,
                "roughnessFactor" : 0.9
            }
        }
    ],
    "meshes" : [
        {
            "name" : "Mesh_0",
            "primitives" : [
                {
                    "attributes" : {
                        "POSITION" : 0,
                        "NORMAL" : 1
                    },
                    "indices" : 2,
                    "material" : 0
                }
            ]
        },
        {
            "name" : "Mesh_1",
            "primitives" : [
                {
                    "attributes" : {
                        "POSITION" : 3,
                        "NORMAL" : 4
                    },
                    "indices" : 5,
                    "material" : 1
                }
            ]
        },
        {
            "name" : "Mesh_2",
            "primitives" : [
                {
                    "attributes" : {
                        "POSITION" : 6,
                        "NORMAL" : 7
                    },
                    "indices" : 8,
                    "material" : 2
                }
            ]
        },
        {
            "name" : "Mesh_3",
            "primitives" : [
                {
                    "attributes" : {
                        "POSITION" : 9,
                        "NORMAL" : 10,
                        "TEXCOORD_0" : 11
                    },
                    "indices" : 12,
                    "material" : 3
                }
            ]
        },
        {
            "name" : "Mesh_4",
            "primitives" : [
                {
                    "attributes" : {
                        "POSITION" : 13,
                        "NORMAL" : 14,
                        "TEXCOORD_0" : 15
                    },
                    "indices" : 16,
                    "material" : 4
                }
            ]
        }
    ],
    "textures" : [
        {
            "sampler" : 0,
            "source" : 0
        },
        {
            "sampler" : 0,
            "source" : 1
        }
    ],
    "images" : [
        {
            "mimeType" : "image/jpeg",
            "name" : "Image_0",
            "uri" : "Image_0.jpg"
        },
        {
            "mimeType" : "image/jpeg",
            "name" : "Image_1",
            "uri" : "Image_1.jpg"
        }
    ],
    "accessors" : [
        {
            "bufferView" : 0,
            "componentType" : 5126,
            "count" : 102,
            "max" : [
                8.023025512695312,
                0.2427276074886322,
                6.429599285125732
            ],
            "min" : [
                -5.3769755363464355,
                0.2427276074886322,
                -6.970401287078857
            ],
            "type" : "VEC3"
        },
        {
            "bufferView" : 1,
            "componentType" : 5126,
            "count" : 102,
            "type" : "VEC3"
        },
        {
            "bufferView" : 2,
            "componentType" : 5123,
            "count" : 102,
            "type" : "SCALAR"
        },
        {
            "bufferView" : 3,
            "componentType" : 5126,
            "count" : 5814,
            "max" : [
                10.272882461547852,
                6.983097076416016,
                7.640209197998047
            ],
            "min" : [
                -8.510360717773438,
                -0.1260300874710083,
                -7.215687274932861
            ],
            "type" : "VEC3"
        },
        {
            "bufferView" : 4,
            "componentType" : 5126,
            "count" : 5814,
            "type" : "VEC3"
        },
        {
            "bufferView" : 5,
            "componentType" : 5123,
            "count" : 5814,
            "type" : "SCALAR"
        },
        {
            "bufferView" : 6,
            "componentType" : 5126,
            "count" : 57,
            "max" : [
                114.1810073852539,
                -0.8989526629447937,
                65.4210205078125
            ],
            "min" : [
                -23.693275451660156,
                -0.8989529609680176,
                -72.31572723388672
            ],
            "type" : "VEC3"
        },
        {
            "bufferView" : 7,
            "componentType" : 5126,
            "count" : 57,
            "type" : "VEC3"
        },
        {
            "bufferView" : 8,
            "componentType" : 5123,
            "count" : 57,
            "type" : "SCALAR"
        },
        {
            "bufferView" : 9,
            "componentType" : 5126,
            "count" : 64569,
            "max" : [
                1.9032235145568848,
                7.1487555503845215,
                0.8321094512939453
            ],
            "min" : [
                -2.9595820903778076,
                -1.434236764907837e-07,
                -4.722286701202393
            ],
            "type" : "VEC3"
        },
        {
            "bufferView" : 10,
            "componentType" : 5126,
            "count" : 64569,
            "type" : "VEC3"
        },
        {
            "bufferView" : 11,
            "componentType" : 5126,
            "count" : 64569,
            "type" : "VEC2"
        },
        {
            "bufferView" : 12,
            "componentType" : 5123,
            "count" : 64569,
            "type" : "SCALAR"
        },
        {
            "bufferView" : 13,
            "componentType" : 5126,
            "count" : 2803,
            "max" : [
                10.272882461547852,
                6.983097076416016,
                7.640209197998047
            ],
            "min" : [
                -8.510360717773438,
                -0.1260300874710083,
                -7.215687274932861
            ],
            "type" : "VEC3"
        },
        {
            "bufferView" : 14,
            "componentType" : 5126,
            "count" : 2803,
            "type" : "VEC3"
        },
        {
            "bufferView" : 15,
            "componentType" : 5126,
            "count" : 2803,
            "type" : "VEC2"
        },
        {
            "bufferView" : 16,
            "componentType" : 5123,
            "count" : 2907,
            "type" : "SCALAR"
        }
    ],
    "bufferViews" : [
        {
            "buffer" : 0,
            "byteLength" : 1224,
            "byteOffset" : 0
        },
        {
            "buffer" : 0,
            "byteLength" : 1224,
            "byteOffset" : 1224
        },
        {
            "buffer" : 0,
            "byteLength" : 204,
            "byteOffset" : 2448
        },
        {
            "buffer" : 0,
            "byteLength" : 69768,
            "byteOffset" : 2652
        },
        {
            "buffer" : 0,
            "byteLength" : 69768,
            "byteOffset" : 72420
        },
        {
            "buffer" : 0,
            "byteLength" : 11628,
            "byteOffset" : 142188
        },
        {
            "buffer" : 0,
            "byteLength" : 684,
            "byteOffset" : 153816
        },
        {
            "buffer" : 0,
            "byteLength" : 684,
            "byteOffset" : 154500
        },
        {
            "buffer" : 0,
            "byteLength" : 114,
            "byteOffset" : 155184
        },
        {
            "buffer" : 0,
            "byteLength" : 774828,
            "byteOffset" : 155300
        },
        {
            "buffer" : 0,
            "byteLength" : 774828,
            "byteOffset" : 930128
        },
        {
            "buffer" : 0,
            "byteLength" : 516552,
            "byteOffset" : 1704956
        },
        {
            "buffer" : 0,
            "byteLength" : 129138,
            "byteOffset" : 2221508
        },
        {
            "buffer" : 0,
            "byteLength" : 33636,
            "byteOffset" : 2350648
        },
        {
            "buffer" : 0,
            "byteLength" : 33636,
            "byteOffset" : 2384284
        },
        {
            "buffer" : 0,
            "byteLength" : 22424,
            "byteOffset" : 2417920
        },
        {
            "buffer" : 0,
            "byteLength" : 5814,
            "byteOffset" : 2440344
        }
    ],
    "samplers" : [
        {
            "magFilter" : 9729,
            "minFilter" : 9987
        }
    ],
    "buffers" : [
        {
            "byteLength" : 2446160,
            "uri" : "modal.bin"
        }
    ]
}
